<?xml version="1.0" encoding="UTF-8"?><svg id="a" xmlns="http://www.w3.org/2000/svg" width="200" height="200" viewBox="0 0 200 200"><defs><style>.b{fill:#fff;stroke-width:0px;}.c{fill:#231f20;stroke:#fff;stroke-miterlimit:10;}</style></defs><rect class="c" x="7.8468" y="7.4628" width="184.3064" height="185.0744" rx="92.1531" ry="92.1531"/><path class="b" d="m67.8338,135.9708h-3.5624l-.6797,1.6442h-1.8197l3.4202-7.6731h1.7538l3.4309,7.6731h-1.8635l-.6797-1.6442Zm-.5591-1.3484l-1.2166-2.9376-1.2166,2.9376h2.4333Z"/><path class="b" d="m79.3644,138.4371c-.5042.6138-1.2276.9427-2.0718.9427-1.1398,0-1.94-.4164-3.1238-1.6661-2.1046-.263-3.5845-1.8525-3.5845-3.9353,0-2.2799,1.7757-3.9681,4.1983-3.9681,2.4114,0,4.1983,1.6773,4.1983,3.9681,0,1.7978-1.1072,3.2228-2.7405,3.7488.3726.3948.7015.5372,1.0854.5372.4713,0,.8877-.1864,1.2494-.57l.7893.9427Zm-4.5819-2.2033c1.3703,0,2.4004-.9974,2.4004-2.4554s-1.0302-2.4554-2.4004-2.4554-2.4007.9976-2.4007,2.4554,1.0304,2.4554,2.4007,2.4554Z"/><path class="b" d="m85.8494,135.9708h-3.5624l-.6797,1.6442h-1.8197l3.4202-7.6731h1.7538l3.4309,7.6731h-1.8635l-.6797-1.6442Zm-.5591-1.3484l-1.2166-2.9376-1.2166,2.9376h2.4333Z"/><path class="b" d="m95.0857,135.9708h-3.5624l-.6797,1.6442h-1.8197l3.4202-7.6731h1.7538l3.4309,7.6731h-1.8635l-.6797-1.6442Zm-.5591-1.3484l-1.2166-2.9376-1.2166,2.9376h2.4333Z"/><path class="b" d="m103.317,137.615l-1.4799-2.1374h-1.6333v2.1374h-1.7757v-7.6731h3.3212c2.0499,0,3.3324,1.0632,3.3324,2.7843,0,1.151-.581,1.995-1.5786,2.4226l1.721,2.4663h-1.9072Zm-1.6661-6.2261h-1.4471v2.6746h1.4471c1.0851,0,1.6333-.5044,1.6333-1.3374,0-.844-.5482-1.3372-1.6333-1.3372Z"/><path class="b" d="m115.0618,132.7262c0,1.7101-1.2825,2.7733-3.3324,2.7733h-1.5455v2.1155h-1.7757v-7.6731h3.3212c2.0499,0,3.3324,1.0632,3.3324,2.7843Zm-1.7976,0c0-.844-.5482-1.3372-1.6333-1.3372h-1.4471v2.6637h1.4471c1.0851,0,1.6333-.4935,1.6333-1.3265Z"/><path class="b" d="m116.3214,129.9419h1.7757v6.2263h3.8475v1.4468h-5.6232v-7.6731Z"/><path class="b" d="m122.777,134.2389v-4.297h1.776v4.2313c0,1.4578.6357,2.0606,1.7098,2.0606,1.0854,0,1.7101-.6028,1.7101-2.0606v-4.2313h1.7538v4.297c0,2.258-1.2934,3.5077-3.4749,3.5077s-3.4749-1.2497-3.4749-3.5077Z"/><path class="b" d="m130.8767,136.8588l.6028-1.3374c.6468.4713,1.6114.8002,2.5322.8002,1.0523,0,1.4796-.3508,1.4796-.8221,0-1.4359-4.4613-.4495-4.4613-3.2994,0-1.3044,1.0523-2.3897,3.2337-2.3897.9646,0,1.9512.2302,2.6637.6797l-.5482,1.3484c-.7125-.4057-1.4468-.6031-2.1265-.6031-1.0523,0-1.458.3948-1.458.877,0,1.414,4.4613.4385,4.4613,3.2556,0,1.2825-1.0632,2.3786-3.2554,2.3786-1.2169,0-2.4444-.3617-3.1241-.8877Z"/><path class="b" d="m110.1922,125.8537h28.7349v-60.8774h-.0025l-31.4605-22.2257v-23.5997l-45.8255,45.8254v60.8774h28.7822v-22.8156h19.7714v22.8156Zm-9.5111-55.4212h0l-.1344-.1344c-.1444-.1469-.3858-.1469-.5302,0l-.1344.1344h0l-4.0082,4.0082-5.4531,5.4531v-1.8743l1.0604-1.0604,6.5266-6.5266,1.5831-1.5831c.3784-.3784,1.0031-.3784,1.384,0l.1593.1593h0l7.9504,7.9504,1.1077,1.1077v1.8743l-2.982-2.982-5.6031-5.6006-.926-.926Zm6.783-19.9307l25.1306,17.7552v51.2668h-16.07v-35.1221l7.7629,7.7628c.2754.2755.722.2755.9975.0002l1.7722-1.7706c.2757-.2755.2758-.7224.0002-.998l-10.5329-10.5329-8.4332-8.4308-.6273-.6272v-19.3035Zm-23.3757,69.022h-16.1198v-51.9239l33.1656-33.1656v29.0411l-.1593-.1593c-.3808-.3833-1.0056-.3833-1.384,0l-7.1165,7.1165h0l-6.218,6.218-2.168,2.1631-2.4518,2.4468c0,.005.0025.0075.0025.0075l-8.1309,8.1285c-.2756.2755-.2757.7223,0,.9979l1.7701,1.77c.2755.2755.7223.2755.9978,0l7.8124-7.8124v35.1719Zm6.3324-23.0123v-14.4944l5.0555-5.0579,4.5402-4.5402c.1444-.1444.3858-.1444.5302,0l4.5402,4.5402h0l5.1053,5.1052v14.4471h-19.7714Z"/><polygon class="b" points="61.6386 149.7916 61.6386 156.1216 84.0909 156.1216 84.0909 166.8943 90.4208 166.8943 90.4208 156.1216 90.4208 149.7916 84.0909 149.7916 61.6386 149.7916"/><polygon class="b" points="116.5221 149.7916 110.1922 149.7916 110.1922 156.1216 110.1922 166.8943 116.5221 166.8943 116.5221 156.1216 138.9744 156.1216 138.9744 149.7916 116.5221 149.7916"/><path class="b" d="m93.2532,81.32h5.7696c.2272,0,.4117.1845.4117.4117v5.7707c0,.2272-.1845.4117-.4117.4117h-5.768c-.2276,0-.4124-.1848-.4124-.4124v-5.7709c0-.2267.1841-.4108.4108-.4108Z"/><path class="b" d="m101.5398,81.32h5.77c.2273,0,.4118.1845.4118.4118v5.7706c0,.2273-.1845.4118-.4118.4118h-5.7683c-.2276,0-.4124-.1848-.4124-.4124v-5.7709c0-.2267.1841-.4108.4108-.4108Z"/><path class="b" d="m93.2532,89.1652h5.7696c.2272,0,.4117.1845.4117.4117v5.7681c0,.2278-.1849.4128-.4128.4128h-5.7683c-.2269,0-.4111-.1842-.4111-.4111v-5.7706c0-.2268.1841-.4109.4109-.4109Z"/><path class="b" d="m101.5398,89.1652h5.7699c.2273,0,.4118.1845.4118.4118v5.768c0,.2278-.1849.4128-.4128.4128h-5.7671c-.2278,0-.4128-.1849-.4128-.4128v-5.7689c0-.2268.1841-.4109.4109-.4109Z"/><path class="b" d="m71.4723,144.8968v2.0579h-.5232v-4.7323h1.9012c.3676,0,.6819.035.9437.1047.2613.0697.4744.164.6396.2827.1647.1187.2848.259.3603.4212.0755.162.1132.3317.1132.5089,0,.1318-.0202.2657-.0603.4012-.04.1357-.1164.2639-.2296.3847-.1132.1206-.2664.2271-.4592.3193-.1933.0925-.3985.1537-.6152.1838l1.6891,2.1258h-.6147l-1.6468-2.0579h-1.4981Zm0-2.273v1.8715h1.2791c.259,0,.49-.017.6925-.0508.2025-.034.3713-.0895.5052-.1668.1344-.0773.237-.1762.3078-.2968.0704-.1208.1058-.2696.1058-.4468,0-.1394-.0281-.2657-.0847-.3789-.0566-.113-.1472-.2082-.2724-.2855-.1247-.0771-.2908-.1376-.4983-.1808-.2071-.0433-.4592-.0651-.756-.0651h-1.2791Z"/><path class="b" d="m76.9496,142.2223h3.4491v.4015h-2.9259v1.6624h2.6503v.4127h-2.6503v1.8545h2.9613v.4012h-3.4845v-4.7323Z"/><path class="b" d="m86.8509,146.9547h-.565l-.7495-1.4926h-2.6006l-.7491,1.4926h-.5655l2.3747-4.7323h.4804l2.3747,4.7323Zm-3.7104-1.9054h2.1911l-1.0955-2.1711-1.0955,2.1711Z"/><path class="b" d="m88.9923,146.5534h2.9259v.4012h-3.456v-4.7323h.5301v4.3311Z"/><path class="b" d="m96.6105,142.2223h3.4491v.4015h-2.9259v1.6624h2.6503v.4127h-2.6503v1.8545h2.9613v.4012h-3.4845v-4.7323Z"/><path class="b" d="m101.8476,146.1971c.2682.1321.5429.2347.8232.3083.2802.0734.5761.1102.8871.1102.4804,0,.8563-.0782,1.1273-.2347s.4063-.3817.4063-.6757c0-.1357-.0308-.2544-.092-.3561s-.1509-.1923-.2682-.2715c-.1178-.0791-.2627-.1488-.4348-.2091s-.364-.1169-.5761-.1696l-.4238-.1019c-.5186-.1242-.9014-.2947-1.1485-.5117-.2475-.2167-.3713-.4758-.3713-.7774,0-.1997.0529-.3722.1592-.5174.1058-.1449.2462-.2648.4205-.3589.1739-.0943.3686-.1631.583-.2064s.4348-.0651.6607-.0651c.3626,0,.7054.0377,1.0284.1132.3225.0752.6373.1884.9432.3391l-.2682.3561c-.2687-.1355-.5434-.2383-.8236-.3081s-.5784-.1047-.894-.1047c-.1744,0-.3405.0152-.4983.0453s-.2922.0745-.4026.133c-.1109.0584-.1992.1327-.265.2232-.0663.0904-.0989.196-.0989.3168,0,.2374.0952.4268.2862.568.1909.1415.4794.2611.8659.3591l.4661.113c.2025.0492.404.1095.6046.1811.2002.0715.3801.161.5406.2685.1601.1074.2908.2356.392.3844.1012.1491.1518.3235.1518.5232,0,.4334-.1813.7652-.5439.995-.363.2298-.8719.3449-1.5267.3449-.3534,0-.6962-.0377-1.0284-.113-.3322-.0755-.6515-.1884-.9575-.3393l.2756-.3619Z"/><path class="b" d="m109.0282,142.6238h-2.0991v-.4015h4.7213v.4015h-2.0991v4.3309h-.5232v-4.3309Z"/><path class="b" d="m117.7843,146.9547h-.565l-.7495-1.4926h-2.6006l-.7491,1.4926h-.5655l2.3747-4.7323h.4804l2.3747,4.7323Zm-3.7104-1.9054h2.1911l-1.0955-2.1711-1.0955,2.1711Z"/><path class="b" d="m120.7884,142.6238h-2.0991v-.4015h4.7213v.4015h-2.0991v4.3309h-.5232v-4.3309Z"/><path class="b" d="m125.0638,142.2223h3.4491v.4015h-2.9259v1.6624h2.6503v.4127h-2.6503v1.8545h2.9613v.4012h-3.4845v-4.7323Z"/></svg>