<?xml version="1.0" encoding="UTF-8"?><svg id="a" xmlns="http://www.w3.org/2000/svg" width="104" height="40" viewBox="0 0 104 40"><defs><style>.b{stroke:#fff;stroke-miterlimit:10;stroke-width:.5px;}.b,.c{fill:#fff;}.c{stroke-width:0px;}</style></defs><path class="c" d="m35.5883,19.1051h-3.247l-.6195,1.4987h-1.6586l3.1174-6.9939h1.5986l3.1271,6.9939h-1.6985l-.6195-1.4987Zm-.5096-1.229l-1.1089-2.6776-1.1089,2.6776h2.2179Z"/><path class="c" d="m46.0982,21.3531c-.4595.5594-1.1189.8592-1.8884.8592-1.0389,0-1.7683-.3795-2.8473-1.5186-1.9183-.2397-3.2672-1.6885-3.2672-3.5869,0-2.078,1.6185-3.6168,3.8266-3.6168,2.1979,0,3.8266,1.5288,3.8266,3.6168,0,1.6387-1.0092,2.9375-2.4979,3.417.3397.3598.6394.4897.9893.4897.4296,0,.8091-.1699,1.1388-.5196l.7194.8592Zm-4.1762-2.0083c1.249,0,2.1879-.9091,2.1879-2.238s-.939-2.238-2.1879-2.238-2.1882.9093-2.1882,2.238.9392,2.238,2.1882,2.238Z"/><path class="c" d="m52.0091,19.1051h-3.247l-.6195,1.4987h-1.6586l3.1174-6.9939h1.5986l3.1271,6.9939h-1.6985l-.6195-1.4987Zm-.5096-1.229l-1.1089-2.6776-1.1089,2.6776h2.2179Z"/><path class="c" d="m60.4278,19.1051h-3.247l-.6195,1.4987h-1.6586l3.1174-6.9939h1.5986l3.1271,6.9939h-1.6985l-.6195-1.4987Zm-.5096-1.229l-1.1089-2.6776-1.1089,2.6776h2.2179Z"/><path class="c" d="m67.9304,20.6037l-1.3489-1.9482h-1.4887v1.9482h-1.6185v-6.9939h3.0272c1.8684,0,3.0374.9691,3.0374,2.5378,0,1.0491-.5295,1.8184-1.4388,2.2081l1.5687,2.248h-1.7384Zm-1.5186-5.6749h-1.319v2.4379h1.319c.9891,0,1.4887-.4597,1.4887-1.219,0-.7693-.4996-1.2188-1.4887-1.2188Z"/><path class="c" d="m79.7755,16.1477c0,1.5587-1.169,2.5278-3.0374,2.5278h-1.4087v1.9283h-1.6185v-6.9939h3.0272c1.8684,0,3.0374.9691,3.0374,2.5378Zm-1.6385,0c0-.7693-.4996-1.2188-1.4887-1.2188h-1.319v2.4279h1.319c.9891,0,1.4887-.4498,1.4887-1.2091Z"/><path class="c" d="m80.9236,13.6099h1.6185v5.6751h3.5069v1.3187h-5.1254v-6.9939Z"/><path class="c" d="m86.8077,17.5264v-3.9166h1.6187v3.8568c0,1.3287.5794,1.8782,1.5585,1.8782.9893,0,1.5587-.5495,1.5587-1.8782v-3.8568h1.5986v3.9166c0,2.0581-1.1789,3.1972-3.1672,3.1972s-3.1672-1.1391-3.1672-3.1972Z"/><path class="c" d="m94.1904,19.9145l.5495-1.219c.5896.4296,1.4687.7294,2.308.7294.9591,0,1.3487-.3197,1.3487-.7493,0-1.3088-4.0664-.4097-4.0664-3.0073,0-1.1889.9591-2.1782,2.9475-2.1782.8792,0,1.7785.2098,2.4279.6195l-.4996,1.229c-.6494-.3698-1.3187-.5497-1.9382-.5497-.9591,0-1.3289.3598-1.3289.7994,0,1.2888,4.0664.3997,4.0664,2.9674,0,1.169-.9691,2.168-2.9672,2.168-1.1091,0-2.228-.3297-2.8475-.8091Z"/><path class="c" d="m8.2713,29.4479c0,.1179.0283.2052.0848.2617.0565.0565.1314.0848.2248.0848.0983,0,.172-.0279.2211-.0836.0491-.0556.0737-.131.0737-.226v-.9263h.3415v.8821c0,.0868-.0074.1646-.0221.2334.0393.0328.0905.0569.1536.0725.0631.0156.1257.0233.188.0233v.344c-.0672,0-.1249-.0057-.1732-.0172-.0484-.0115-.0897-.0266-.1241-.0455-.0344-.0188-.0626-.0401-.0848-.0639-.0221-.0237-.0406-.0479-.0553-.0725-.1032.1491-.276.2236-.5184.2236-.0475,0-.0942-.0037-.14-.0111-.0459-.0074-.0901-.02-.1327-.0381-.0426-.018-.0823-.0421-.1192-.0725-.0369-.0303-.0692-.0684-.0971-.1142-.0623.0655-.136.1171-.2211.1548-.0852.0377-.1744.0565-.2678.0565h-.2531v.3071h-.5651c-.0737,0-.1405-.0037-.2003-.0111-.0598-.0074-.1151-.0193-.1659-.0356-.0508-.0164-.097-.0373-.1388-.0626-.0418-.0254-.0815-.0561-.1192-.0922-.0606-.0573-.1032-.1314-.1277-.2223s-.0369-.1863-.0369-.2862v-.8034h.344v.7617c0,.0737.0077.1364.0233.188.0156.0516.0421.0938.0798.1265.0426.036.0958.0606.1597.0737.0639.0131.1327.0197.2064.0197h.1965v-1.3465h.344v1.0393h.2531c.036,0,.0733-.0045.1118-.0135.0385-.009.0737-.0254.1057-.0491.0319-.0237.0577-.0553.0774-.0946.0197-.0393.0295-.0892.0295-.1499v-.6093h.344v.5946Z"/><path class="c" d="m9.4727,29.7698h.484v.344h-.484v-.344Z"/><path class="c" d="m9.9076,29.7698h.484v.344h-.484v-.344Z"/><path class="c" d="m10.3425,29.7698h.2408v-1.6487h.344v1.6487h.3145v.344h-.8993v-.344Z"/><path class="c" d="m11.1927,29.7698h.484v.344h-.484v-.344Z"/><path class="c" d="m11.6275,29.7698h.3047v-1.0393h.344v1.3833h-.6486v-.344Zm.6228.8206c-.0402.0311-.0872.0467-.1413.0467s-.1012-.0156-.1413-.0467c-.0402-.0311-.0602-.077-.0602-.1376,0-.0541.0192-.0979.0577-.1315.0385-.0336.0864-.0504.1437-.0504s.1052.0168.1437.0504c.0385.0336.0578.0774.0578.1315,0,.0606-.0201.1065-.0602.1376Z"/><path class="c" d="m13.4334,30.6543c-.0328,0-.0647-.0021-.0958-.0061-.0311-.0041-.0574-.0094-.0786-.016l-.0246-.344c.0327.0082.0614.0139.086.0172.0246.0033.05.0049.0762.0049.0688,0,.1167-.0189.1437-.0565.027-.0377.0405-.0991.0405-.1843v-1.3391h.344v1.2899c0,.1114-.009.2068-.027.2862-.018.0794-.0467.145-.086.1965-.0393.0516-.0901.0897-.1523.1142-.0623.0246-.1376.0369-.226.0369Z"/><path class="c" d="m14.3917,28.1211h.344v1.6487h.3145v.344h-.6585v-1.9926Z"/><path class="c" d="m15.001,29.7698h.484v.344h-.484v-.344Z"/><path class="c" d="m15.4359,29.7698h.484v.344h-.484v-.344Z"/><path class="c" d="m15.8708,29.7698h.3292c-.0361-.0475-.0647-.0999-.086-.1573-.0213-.0573-.0319-.1212-.0319-.1916,0-.1081.02-.2047.0602-.2899.0401-.0851.0962-.1576.1683-.2175.072-.0598.1589-.1052.2604-.1364.1015-.0311.2138-.0467.3366-.0467h.4054v1.0393h.2261v.344h-1.6683v-.344Zm.8059-1.2936c-.0377.0303-.0827.0455-.1351.0455-.0525,0-.0975-.0151-.1351-.0455-.0377-.0303-.0565-.0741-.0565-.1314,0-.0524.0184-.0946.0553-.1265s.0823-.0479.1364-.0479.0995.016.1364.0479c.0369.032.0553.0741.0553.1265,0,.0573-.0189.1012-.0565.1314Zm-.2506.9447c0,.0754.0168.1425.0504.2015.0336.059.079.1081.1364.1474h.3563v-.6954h-.145c-.0491,0-.0979.0074-.1462.0221-.0483.0148-.0909.0369-.1277.0664-.0369.0295-.0668.066-.0897.1093-.023.0434-.0344.093-.0344.1487Zm.7838-.9447c-.0377.0303-.0827.0455-.1352.0455s-.0975-.0151-.1351-.0455c-.0377-.0303-.0565-.0741-.0565-.1314,0-.0524.0184-.0946.0553-.1265.0369-.032.0823-.0479.1364-.0479.0557,0,.1016.016.1376.0479s.0541.0741.0541.1265c0,.0573-.0189.1012-.0565.1314Z"/><path class="c" d="m17.4899,29.7698h.484v.344h-.484v-.344Z"/><path class="c" d="m17.9248,29.7698h.2678c-.0279-.0573-.052-.1204-.0725-.1892-.0205-.0688-.0307-.1425-.0307-.2211,0-.1179.0229-.2211.0688-.3096.0458-.0884.1048-.1622.1769-.2211.0573-.0475.1241-.0836.2003-.1081.0761-.0245.1585-.0368.2469-.0368.0917,0,.1789.0119.2617.0356.0827.0238.1659.0569.2494.0995l-.1155.312c-.0524-.0295-.1102-.0544-.1732-.0749-.0631-.0204-.1233-.0307-.1806-.0307-.113,0-.2023.0279-.2678.0836-.0442.0377-.0754.0799-.0934.1265-.018.0467-.027.097-.027.1511,0,.0786.0115.1495.0344.2125.0229.0631.0549.12.0958.1708h.7789v.344h-1.4201v-.344Z"/><path class="c" d="m8.1938,31.8301c-.0443,0-.0872-.0053-.1287-.0158-.0415-.0105-.078-.0272-.1097-.0501s-.0569-.0519-.0759-.087c-.019-.0351-.0285-.0773-.0285-.1265,0-.0394.0079-.0761.0237-.1102.0158-.0341.0387-.0636.0686-.0886.0299-.0249.0659-.0446.1081-.0591.0422-.0144.0896-.0216.1424-.0216h.0633v-.0527h.0475v.5642h.1413v.0475h-.252Zm.0633-.0475v-.464h-.0928c-.0331,0-.0656.0056-.0976.0169s-.0605.0269-.0854.0469c-.0249.0201-.045.0445-.0601.0733-.0151.0288-.0227.0605-.0227.0949,0,.0366.007.0692.0211.0981.0141.0288.0331.0531.057.0728.0239.0197.052.0348.0844.0454.0323.0105.0668.0158.1034.0158h.0928Zm-.1392-.7013c-.0084.0084-.0186.0127-.0306.0127-.012,0-.0222-.0042-.0306-.0127-.0084-.0084-.0126-.0186-.0126-.0306,0-.0119.0042-.0221.0126-.0306.0084-.0084.0186-.0127.0306-.0127.0119,0,.0221.0042.0306.0127s.0127.0186.0127.0306c0,.012-.0042.0222-.0127.0306Zm.1888,0c-.0084.0084-.0186.0127-.0306.0127-.012,0-.0222-.0042-.0306-.0127-.0085-.0084-.0127-.0186-.0127-.0306,0-.0119.0042-.0221.0127-.0306.0084-.0084.0186-.0127.0306-.0127.0119,0,.0222.0042.0306.0127.0084.0084.0127.0186.0127.0306,0,.012-.0042.0222-.0127.0306Z"/><path class="c" d="m8.4248,31.7826h.2383v-.5115h.0475v.5589h-.2858v-.0475Zm.0939.2531c-.0084.0084-.0186.0127-.0306.0127-.012,0-.0222-.0042-.0306-.0127-.0084-.0084-.0127-.0187-.0127-.0306,0-.012.0042-.0221.0127-.0306.0084-.0084.0186-.0127.0306-.0127.0119,0,.0222.0042.0306.0127.0084.0084.0127.0186.0127.0306,0,.0119-.0042.0222-.0127.0306Zm.1888,0c-.0084.0084-.0186.0127-.0306.0127-.012,0-.0221-.0042-.0306-.0127-.0084-.0084-.0126-.0187-.0126-.0306,0-.012.0042-.0221.0126-.0306.0085-.0084.0186-.0127.0306-.0127.0119,0,.0221.0042.0306.0127s.0127.0186.0127.0306c0,.0119-.0042.0222-.0127.0306Z"/><path class="c" d="m8.8888,32.0631c-.0176,0-.0352-.0039-.0527-.0116l.0169-.0443c.0133.0056.0267.0084.0401.0084.0197,0,.0352-.0042.0464-.0127.0112-.0084.0199-.0192.0258-.0322.006-.013.0097-.0274.0111-.0432.0014-.0158.0021-.0311.0021-.0459v-.6106h.0475v.6106c0,.0246-.0018.048-.0053.0701-.0035.0222-.0102.0415-.02.058-.0099.0165-.0237.0295-.0417.039s-.0413.0142-.0701.0142Z"/><path class="c" d="m9.2421,30.9748h.0475v.8078h.1645v.0475h-.212v-.8553Z"/><path class="c" d="m9.433,31.7826h.2425v.0475h-.2425v-.0475Z"/><path class="c" d="m9.6544,31.7826h.2426c-.0183-.0119-.0352-.0255-.0506-.0406-.0155-.0151-.0292-.0323-.0411-.0517-.012-.0193-.0213-.0406-.0279-.0638-.0067-.0232-.01-.0489-.01-.077,0-.0408.0075-.0784.0227-.1128.0151-.0344.0371-.0638.0659-.0881.0288-.0243.0642-.0432.106-.0569.0418-.0137.0898-.0206.1439-.0206h.1308v.5115h.1413v.0475h-.7234v-.0475Zm.1603-.2331c0,.0274.0042.0529.0126.0764.0085.0236.0199.045.0343.0643.0144.0193.0313.0367.0506.0522.0193.0155.0402.0288.0627.0401h.2141v-.464h-.1128c-.0331,0-.0654.0051-.097.0153s-.0596.0251-.0838.0448c-.0243.0197-.0438.044-.0585.0728-.0148.0288-.0221.0615-.0221.0981Zm.2077-.4271c-.0084.0084-.0186.0127-.0306.0127-.012,0-.0221-.0042-.0306-.0127-.0084-.0084-.0126-.0186-.0126-.0306,0-.0119.0042-.0221.0126-.0306.0085-.0084.0186-.0127.0306-.0127.0119,0,.0221.0042.0306.0127s.0127.0186.0127.0306c0,.012-.0042.0222-.0127.0306Zm.1888,0c-.0084.0084-.0186.0127-.0306.0127-.012,0-.0222-.0042-.0306-.0127-.0085-.0084-.0127-.0186-.0127-.0306,0-.0119.0042-.0221.0127-.0306.0084-.0084.0186-.0127.0306-.0127.0119,0,.0222.0042.0306.0127.0084.0084.0127.0186.0127.0306,0,.012-.0042.0222-.0127.0306Z"/><path class="c" d="m10.3568,31.7826h.2426v.0475h-.2426v-.0475Z"/><path class="c" d="m10.5782,31.7826h.2141l-.1519-.3849c.0436-.038.0917-.0686.1445-.0917.0527-.0232.1044-.0348.155-.0348.0499,0,.1012.0116.154.0348s.1013.0538.1455.0917l-.1582.3849h.2405v.0475h-.7435v-.0475Zm.3617-.464c-.0415,0-.083.0081-.1244.0243s-.0808.0397-.1181.0707l.1508.3691h.1824l.1519-.3691c-.014-.0127-.0308-.0246-.0501-.0358-.0193-.0113-.0397-.0213-.0612-.0301-.0214-.0088-.0434-.0158-.0659-.0211-.0225-.0053-.0443-.0079-.0654-.0079Z"/><path class="c" d="m11.3006,31.7826h.1645v-.8078h.1519v.0475h-.1044v.8078h-.212v-.0475Z"/><path class="c" d="m11.7805,30.9748h.0474v.8553h-.0474v-.8553Z"/><path class="c" d="m12.6874,31.8301c-.0443,0-.0872-.0053-.1287-.0158s-.078-.0272-.1097-.0501-.0569-.0519-.0759-.087c-.019-.0351-.0285-.0773-.0285-.1265,0-.0394.0079-.0761.0237-.1102.0158-.0341.0386-.0636.0685-.0886.0299-.0249.0659-.0446.1081-.0591.0422-.0144.0897-.0216.1424-.0216h.0633v-.0527h.0475v.5642h.1413v.0475h-.252Zm.0633-.0475v-.464h-.0928c-.0331,0-.0656.0056-.0975.0169-.032.0113-.0605.0269-.0854.0469-.025.0201-.045.0445-.0601.0733-.0151.0288-.0227.0605-.0227.0949,0,.0366.007.0692.0211.0981.014.0288.033.0531.0569.0728.0239.0197.052.0348.0844.0454.0323.0105.0668.0158.1033.0158h.0928Zm-.1392-.7013c-.0084.0084-.0186.0127-.0306.0127-.012,0-.0222-.0042-.0306-.0127-.0085-.0084-.0127-.0186-.0127-.0306,0-.0119.0042-.0221.0127-.0306.0084-.0084.0186-.0127.0306-.0127.0119,0,.0222.0042.0306.0127.0084.0084.0127.0186.0127.0306,0,.012-.0042.0222-.0127.0306Zm.1888,0c-.0084.0084-.0186.0127-.0306.0127-.012,0-.0221-.0042-.0306-.0127-.0084-.0084-.0126-.0186-.0126-.0306,0-.0119.0042-.0221.0126-.0306.0085-.0084.0186-.0127.0306-.0127.0119,0,.0221.0042.0306.0127s.0127.0186.0127.0306c0,.012-.0042.0222-.0127.0306Z"/><path class="c" d="m12.9183,31.7826h.2426v.0475h-.2426v-.0475Z"/><path class="c" d="m13.1398,31.7826h.2426v.0475h-.2426v-.0475Z"/><path class="c" d="m13.3613,31.7826h.1645v-.8078h.0475v.3681h.4028c.0337,0,.0626.0056.0865.0169.0239.0113.046.0281.0664.0506.0162.0183.0279.0399.0353.0649.0074.025.0111.0501.0111.0754v.2795h-.8141v-.0475Zm.212-.3923v.3923h.5547v-.2193c0-.0267-.0026-.0496-.0079-.0686-.0053-.019-.0142-.0366-.0269-.0527-.0126-.0162-.0292-.0288-.0496-.038-.0204-.0091-.0408-.0137-.0612-.0137h-.4092Z"/><path class="c" d="m14.3811,30.9748h.0474v.8078h.1645v.0475h-.212v-.8553Z"/><path class="c" d="m14.5719,31.7826h.2425v.0475h-.2425v-.0475Z"/><path class="c" d="m14.7934,31.7826h.2425v.0475h-.2425v-.0475Z"/><path class="c" d="m15.0148,31.7826h.2383v-.4587h.0475v.4587h.1993c.0415,0,.0756-.0127.1023-.038.0267-.0253.0401-.0622.0401-.1107v-.3101h.0475v.2942c0,.0232.0044.0457.0132.0675.0088.0218.0214.0408.038.0569.0165.0162.0364.0292.0596.039.0232.0099.0496.0148.0791.0148.059,0,.1028-.0165.1313-.0496.0285-.033.0427-.0759.0427-.1287v-.4208h.0475v.4102c0,.0808-.0199.1399-.0596.1772-.0397.0373-.0937.0559-.1619.0559-.0471,0-.0891-.0099-.126-.0295s-.0645-.0485-.0828-.0865c-.0141.0323-.036.058-.0659.077s-.0648.0285-.1049.0285h-.4851v-.0475Z"/><path class="c" d="m16.486,32.0621c-.0331,0-.0624-.0048-.0881-.0143-.0257-.0095-.0526-.0223-.0807-.0385l.0222-.0422c.026.014.0508.0255.0743.0343.0235.0088.049.0132.0765.0132.0492,0,.088-.0118.1165-.0353.0285-.0236.0427-.0564.0427-.0986v-.0506h-.0633c-.0443,0-.0874-.0049-.1292-.0148-.0419-.0098-.079-.0258-.1113-.048-.0323-.0221-.0584-.051-.0781-.0865-.0197-.0355-.0295-.0789-.0295-.1302,0-.0408.0081-.0784.0243-.1128s.0392-.064.0691-.0886c.0299-.0246.0663-.0437.1092-.0575.0429-.0137.0914-.0206.1455-.0206h.1107v.5115h.1635v.0475h-.1635v.0506c0,.0562-.0192.1005-.0575.1329-.0383.0323-.0895.0485-.1534.0485Zm-.2004-.5115c0,.0387.0072.0724.0216.1012.0144.0288.0341.0529.0591.0722.0249.0193.0538.0339.0865.0438s.0673.0148.1039.0148h.0928v-.464h-.0928c-.0331,0-.0658.0055-.0981.0163-.0323.0109-.0614.0264-.087.0464-.0257.02-.0464.0443-.0622.0728-.0158.0285-.0237.0606-.0237.0965Z"/><path class="c" d="m16.8393,31.7826h.1434v-.8078h.0475v.8078h.1645v.0475h-.3554v-.0475Z"/><path class="c" d="m17.1736,31.7826h.1645v-.8078h.1519v.0475h-.1044v.8078h-.212v-.0475Z"/><path class="c" d="m14.9981,27.9428h6.7494v-14.2993h-.0006l-7.3896-5.2205V2.8798L3.5935,13.6435v14.2993h6.7605v-5.3591h4.644v5.3591Zm-2.234-13.0177h0l-.0316-.0316c-.0339-.0345-.0906-.0345-.1245,0l-.0316.0316h0l-.9415.9415-1.2809,1.2809v-.4402l.2491-.2491,1.533-1.533.3718-.3718c.0889-.0889.2356-.0889.3251,0l.0374.0374h0l1.8674,1.8674.2602.2602v.4403l-.7004-.7004-1.3161-1.3155-.2175-.2175Zm1.5932-4.6814l5.9028,4.1705v12.0419h-3.7746v-8.2497l1.8234,1.8234c.0647.0647.1696.0647.2343,0l.4163-.4159c.0648-.0647.0648-.1697,0-.2344l-2.474-2.474-1.9809-1.9803-.1473-.1473v-4.5341Zm-5.4906,16.2123h-3.7863v-12.1962l7.7901-7.7901v6.8213l-.0374-.0374c-.0895-.09-.2362-.09-.3251,0l-1.6716,1.6716h0l-1.4605,1.4605-.5092.5081-.5759.5747c0,.0012.0006.0018.0006.0018l-1.9098,1.9093c-.0647.0647-.0647.1697,0,.2344l.4158.4157c.0647.0647.1696.0647.2344,0l1.835-1.835v8.2614Zm1.4874-5.4053v-3.4045l1.1875-1.188,1.0664-1.0664c.0339-.0339.0906-.0339.1245,0l1.0664,1.0664h0l1.1992,1.1991v3.3934h-4.644Z"/><polygon class="c" points="3.5935 32.4592 3.5935 33.946 8.8673 33.946 8.8673 36.4764 10.3541 36.4764 10.3541 33.946 10.3541 32.4592 8.8673 32.4592 3.5935 32.4592"/><polygon class="c" points="16.4849 32.4592 14.9981 32.4592 14.9981 33.946 14.9981 36.4764 16.4849 36.4764 16.4849 33.946 21.7586 33.946 21.7586 32.4592 16.4849 32.4592"/><path class="c" d="m11.0194,17.2059h1.3552c.0534,0,.0967.0433.0967.0967v1.3553c0,.0535-.0434.0969-.0969.0969h-1.355c-.0533,0-.0966-.0433-.0966-.0966v-1.3558c0-.0533.0432-.0965.0965-.0965Z"/><path class="c" d="m12.9658,17.2059h1.3553c.0534,0,.0967.0433.0967.0967v1.3553c0,.0535-.0434.0969-.0969.0969h-1.3549c-.0534,0-.0967-.0433-.0967-.0967v-1.3557c0-.0533.0432-.0965.0965-.0965Z"/><rect class="c" x="10.9229" y="19.0486" width="1.5484" height="1.5485" rx=".0965" ry=".0965"/><rect class="c" x="12.8693" y="19.0486" width="1.5485" height="1.5485" rx=".0967" ry=".0967"/><path class="b" d="m49.7484,28.9783c-.2351,0-.4628-.028-.683-.084-.2203-.056-.4143-.1446-.5822-.2659s-.3023-.2753-.4031-.4619c-.1008-.1865-.1511-.4105-.1511-.6717,0-.209.042-.404.1259-.5851.0841-.181.2052-.3377.3639-.4702.1586-.1324.35-.237.5739-.3136.2239-.0765.4758-.1147.7557-.1147h.3359v-.2799h.2519v2.9951h.7502v.2519h-1.338Zm.3359-.2519v-2.4633h-.4926c-.1755,0-.3481.0299-.5179.0896s-.321.1427-.4535.2491c-.1324.1064-.2388.2361-.3191.3891-.0802.153-.1203.321-.1203.5039,0,.1941.0373.3676.1119.5206.0747.1531.1755.2818.3024.3863.1269.1046.2762.1848.4479.2408.1716.056.3545.084.5487.084h.4926Zm-.739-3.723c-.0448.0448-.0989.0673-.1623.0673-.0635,0-.1176-.0225-.1624-.0673-.0447-.0447-.0671-.0988-.0671-.1623,0-.0634.0224-.1175.0671-.1623.0448-.0448.0989-.0672.1624-.0672.0634,0,.1175.0224.1623.0672s.0672.0989.0672.1623c0,.0635-.0224.1176-.0672.1623Zm1.0021,0c-.0447.0448-.0989.0673-.1623.0673-.0635,0-.1176-.0225-.1623-.0673-.0449-.0447-.0673-.0988-.0673-.1623,0-.0634.0224-.1175.0673-.1623.0447-.0448.0988-.0672.1623-.0672.0634,0,.1176.0224.1623.0672.0448.0448.0673.0989.0673.1623,0,.0635-.0225.1176-.0673.1623Z"/><path class="b" d="m50.9744,28.7263h1.2652v-2.7152h.2519v2.9672h-1.5172v-.2519Zm.4982,1.3437c-.0447.0447-.0989.0672-.1623.0672-.0635,0-.1176-.0225-.1623-.0672-.0448-.0448-.0673-.099-.0673-.1624,0-.0635.0225-.1175.0673-.1623.0447-.0448.0988-.0672.1623-.0672.0634,0,.1176.0224.1623.0672.0448.0448.0673.0988.0673.1623,0,.0634-.0225.1176-.0673.1624Zm1.0021,0c-.0448.0447-.0989.0672-.1623.0672-.0635,0-.1175-.0225-.1624-.0672-.0447-.0448-.0671-.099-.0671-.1624,0-.0635.0224-.1175.0671-.1623.0449-.0448.0989-.0672.1624-.0672.0634,0,.1175.0224.1623.0672s.0672.0988.0672.1623c0,.0634-.0224.1176-.0672.1624Z"/><path class="b" d="m53.4377,30.2155c-.0933,0-.1867-.0206-.2799-.0615l.0896-.2352c.0708.0299.1418.0448.2127.0448.1044,0,.1867-.0224.2464-.0672.0596-.0448.1054-.1017.1371-.1707.0318-.0692.0513-.1456.0589-.2296.0074-.084.0112-.1651.0112-.2435v-3.2414h.2519v3.2414c0,.1307-.0093.2548-.028.3723-.0187.1176-.0541.2202-.1063.3079-.0523.0876-.126.1568-.2212.2071s-.2193.0756-.3723.0756Z"/><path class="b" d="m55.3131,24.438h.252v4.2884h.8733v.2519h-1.1254v-4.5403Z"/><path class="b" d="m56.3265,28.7263h1.2876v.2519h-1.2876v-.2519Z"/><path class="b" d="m57.5021,28.7263h1.2877c-.0971-.0634-.1867-.1352-.2686-.2155-.0822-.0802-.155-.1716-.2184-.2743-.0635-.1027-.1129-.2155-.1484-.3387-.0355-.1233-.0532-.2595-.0532-.4087,0-.2164.0401-.4161.1204-.599.0803-.1828.1968-.3387.3499-.4675.1531-.1288.3406-.2295.5627-.3023.222-.0728.4767-.1092.7641-.1092h.6942v2.7152h.7502v.2519h-3.8405v-.2519Zm.8511-1.2372c0,.1456.0224.2809.0671.4058.0449.1251.1054.2389.182.3416.0765.1027.1661.1951.2688.2771.1026.0822.2135.1531.333.2128h1.1365v-2.4633h-.599c-.1755,0-.3472.0271-.5152.0812s-.3162.1334-.445.2379c-.1288.1046-.2324.2333-.3107.3863-.0783.1531-.1175.3266-.1175.5207Zm1.1028-2.2673c-.0448.0448-.0989.0672-.1623.0672-.0635,0-.1175-.0224-.1624-.0672-.0447-.0448-.0671-.0989-.0671-.1624,0-.0634.0224-.1175.0671-.1623.0449-.0448.0989-.0672.1624-.0672.0634,0,.1175.0224.1623.0672s.0672.0989.0672.1623c0,.0635-.0224.1176-.0672.1624Zm1.0021,0c-.0447.0448-.0989.0672-.1623.0672-.0635,0-.1176-.0224-.1623-.0672-.0449-.0448-.0673-.0989-.0673-.1624,0-.0634.0224-.1175.0673-.1623.0447-.0448.0988-.0672.1623-.0672.0634,0,.1176.0224.1623.0672.0448.0448.0673.0989.0673.1623,0,.0635-.0225.1176-.0673.1624Z"/><path class="b" d="m61.2306,28.7263h1.2877v.2519h-1.2877v-.2519Z"/><path class="b" d="m62.4063,28.7263h1.1365l-.8062-2.0434c.2312-.2016.4871-.3639.7669-.4871.2799-.1231.5542-.1848.823-.1848.265,0,.5374.0616.8173.1848s.5375.2855.7726.4871l-.8398,2.0434h1.2765v.2519h-3.9469v-.2519Zm1.9202-2.4633c-.2203,0-.4405.0429-.6607.1288s-.4292.2109-.6269.3751l.8005,1.9594h.9685l.8062-1.9594c-.0746-.0672-.1633-.1307-.2659-.1903-.1027-.0597-.2109-.1129-.3247-.1597-.1139-.0466-.2304-.084-.3499-.1119-.1195-.028-.2351-.042-.3471-.042Z"/><path class="b" d="m66.2412,28.7263h.8733v-4.2884h.8062v.2519h-.5542v4.2884h-1.1253v-.2519Z"/><path class="b" d="m68.7885,24.438h.2518v4.5403h-.2518v-4.5403Z"/><path class="b" d="m73.603,28.9783c-.2351,0-.4628-.028-.683-.084s-.4143-.1446-.5822-.2659-.3023-.2753-.4031-.4619c-.1008-.1865-.1511-.4105-.1511-.6717,0-.209.0419-.404.126-.5851.0839-.181.2051-.3377.3638-.4702.1587-.1324.3499-.237.5738-.3136.2239-.0765.476-.1147.7558-.1147h.3359v-.2799h.2519v2.9951h.7502v.2519h-1.338Zm.3359-.2519v-2.4633h-.4927c-.1755,0-.3481.0299-.5178.0896-.1698.0597-.3211.1427-.4534.2491-.1326.1064-.239.2361-.3191.3891-.0803.153-.1204.321-.1204.5039,0,.1941.0372.3676.112.5206.0746.1531.1754.2818.3023.3863.1268.1046.2762.1848.4479.2408.1716.056.3545.084.5486.084h.4927Zm-.739-3.723c-.0447.0448-.0989.0673-.1623.0673-.0635,0-.1176-.0225-.1623-.0673-.0449-.0447-.0673-.0988-.0673-.1623,0-.0634.0224-.1175.0673-.1623.0447-.0448.0988-.0672.1623-.0672.0634,0,.1176.0224.1623.0672.0448.0448.0673.0989.0673.1623,0,.0635-.0225.1176-.0673.1623Zm1.0021,0c-.0448.0448-.0989.0673-.1623.0673-.0635,0-.1175-.0225-.1624-.0673-.0447-.0447-.0671-.0988-.0671-.1623,0-.0634.0224-.1175.0671-.1623.0449-.0448.0989-.0672.1624-.0672.0634,0,.1175.0224.1623.0672s.0672.0989.0672.1623c0,.0635-.0224.1176-.0672.1623Z"/><path class="b" d="m74.829,28.7263h1.2877v.2519h-1.2877v-.2519Z"/><path class="b" d="m76.0047,28.7263h1.2877v.2519h-1.2877v-.2519Z"/><path class="b" d="m77.1804,28.7263h.8733v-4.2884h.2519v1.9539h2.1385c.1791,0,.3322.0299.4591.0895.1269.0597.2444.1494.3527.2688.0857.0971.1484.2119.1875.3443.0392.1326.0588.2659.0588.4003v1.4835h-4.3219v-.2519Zm1.1253-2.0825v2.0825h2.9447v-1.1644c0-.1418-.0139-.2631-.042-.3639-.0279-.1008-.0755-.1941-.1427-.2799-.0671-.0859-.1549-.153-.2631-.2016-.1082-.0485-.2164-.0727-.3246-.0727h-2.1722Z"/><path class="b" d="m82.594,24.438h.2518v4.2884h.8734v.2519h-1.1253v-4.5403Z"/><path class="b" d="m83.6073,28.7263h1.2876v.2519h-1.2876v-.2519Z"/><path class="b" d="m84.7829,28.7263h1.2876v.2519h-1.2876v-.2519Z"/><path class="b" d="m85.9586,28.7263h1.2652v-2.4353h.2519v2.4353h1.0581c.2202,0,.4012-.0672.543-.2015.1418-.1344.2127-.3304.2127-.5879v-1.6459h.252v1.562c0,.1231.0232.2426.0699.3583.0467.1157.1137.2165.2016.3023.0876.086.1932.155.3162.2071.1233.0523.2631.0784.42.0784.3135,0,.5457-.0876.6968-.2631.1513-.1754.2268-.4031.2268-.683v-2.2338h.2519v2.1778c0,.4292-.1054.7428-.3163.9405-.2109.1979-.4975.2967-.8593.2967-.2502,0-.4731-.0523-.6691-.1568s-.3424-.2575-.4395-.4591c-.0747.1717-.1913.3079-.35.4087s-.3442.1511-.557.1511h-2.5752v-.2519Z"/><path class="b" d="m93.7683,30.21c-.1755,0-.3313-.0252-.4675-.0757-.1363-.0503-.279-.1185-.4283-.2042l.1176-.2239c.1381.0746.2695.1352.3947.1819.1249.0467.2603.07.406.07.2611,0,.4674-.0626.6185-.1875.1511-.1251.2268-.2995.2268-.5235v-.2688h-.3359c-.2352,0-.4638-.0261-.6858-.0783-.2222-.0522-.4191-.1372-.5906-.2548-.1717-.1175-.3099-.2705-.4144-.4591-.1046-.1884-.1568-.4189-.1568-.6913,0-.2164.0429-.4161.1288-.599s.208-.3396.3667-.4703c.1587-.1306.3517-.2322.5794-.305.2276-.0728.4852-.1092.7726-.1092h.5877v2.7152h.8678v.2519h-.8678v.2688c0,.2985-.1017.5336-.305.7054-.2035.1716-.475.2576-.8146.2576Zm-1.0636-2.7152c0,.2052.0382.3844.1146.5374.0766.153.181.2809.3136.3835.1324.1027.2855.1801.4591.2324s.3573.0783.5515.0783h.4927v-2.4633h-.4927c-.1755,0-.3491.029-.5206.0867-.1717.058-.3257.14-.4619.2464-.1362.1063-.2464.2351-.3303.3863-.084.1511-.1259.3219-.1259.5123Z"/><path class="b" d="m95.6438,28.7263h.7613v-4.2884h.2519v4.2884h.8733v.2519h-1.8866v-.2519Z"/><path class="b" d="m97.4184,28.7263h.8734v-4.2884h.8062v.2519h-.5543v4.2884h-1.1253v-.2519Z"/></svg>