<?xml version="1.0" encoding="UTF-8"?><svg id="a" xmlns="http://www.w3.org/2000/svg" width="196.7519" height="66.7265" viewBox="0 0 196.7519 66.7265"><defs><style>.b{stroke:#231f20;stroke-miterlimit:10;stroke-width:.5px;}.b,.c{fill:#231f20;}.d,.c{stroke-width:0px;}</style></defs><path class="d" d="m68.4093,32.358h-5.6964l-1.0868,2.6291h-2.9098l5.469-12.2696h2.8044l5.4861,12.2696h-2.9798l-1.0868-2.6291Zm-.894-2.1561l-1.9454-4.6974-1.9454,4.6974h3.8909Z"/><path class="d" d="m86.8471,36.3017c-.8062.9815-1.9629,1.5074-3.3129,1.5074-1.8226,0-3.1022-.6658-4.9951-2.6641-3.3653-.4206-5.7317-2.9623-5.7317-6.2926,0-3.6456,2.8394-6.3451,6.7132-6.3451,3.8559,0,6.7132,2.682,6.7132,6.3451,0,2.8748-1.7705,5.1533-4.3822,5.9945.5959.6312,1.1218.859,1.7355.859.7537,0,1.4195-.2981,1.9979-.9115l1.2621,1.5074Zm-7.3266-3.5232c2.1911,0,3.8384-1.5948,3.8384-3.9262s-1.6473-3.9262-3.8384-3.9262-3.8388,1.5952-3.8388,3.9262,1.6477,3.9262,3.8388,3.9262Z"/><path class="d" d="m97.2168,32.358h-5.6964l-1.0868,2.6291h-2.9098l5.469-12.2696h2.8044l5.4861,12.2696h-2.9798l-1.0868-2.6291Zm-.894-2.1561l-1.9454-4.6974-1.9454,4.6974h3.8909Z"/><path class="d" d="m111.986,32.358h-5.6964l-1.0868,2.6291h-2.9098l5.469-12.2696h2.8044l5.4861,12.2696h-2.9798l-1.0868-2.6291Zm-.894-2.1561l-1.9454-4.6974-1.9454,4.6974h3.8909Z"/><path class="d" d="m125.1481,34.9871l-2.3664-3.4178h-2.6117v3.4178h-2.8394v-12.2696h5.3108c3.2779,0,5.3286,1.7002,5.3286,4.4521,0,1.8405-.929,3.19-2.5242,3.8738l2.752,3.9437h-3.0497Zm-2.6641-9.9557h-2.3139v4.2768h2.3139c1.7351,0,2.6117-.8065,2.6117-2.1386,0-1.3496-.8765-2.1382-2.6117-2.1382Z"/><path class="d" d="m145.9285,27.1697c0,2.7345-2.0508,4.4346-5.3286,4.4346h-2.4713v3.3828h-2.8394v-12.2696h5.3108c3.2779,0,5.3286,1.7002,5.3286,4.4521Zm-2.8744,0c0-1.3496-.8765-2.1382-2.6117-2.1382h-2.3139v4.2593h2.3139c1.7351,0,2.6117-.7891,2.6117-2.1211Z"/><path class="d" d="m147.9427,22.7175h2.8394v9.9561h6.1523v2.3135h-8.9917v-12.2696Z"/><path class="d" d="m158.2653,29.5885v-6.871h2.8398v6.7661c0,2.331,1.0164,3.295,2.7341,3.295,1.7355,0,2.7345-.964,2.7345-3.295v-6.7661h2.8044v6.871c0,3.6106-2.0683,5.6089-5.5564,5.6089s-5.5564-1.9983-5.5564-5.6089Z"/><path class="d" d="m171.2171,33.7779l.964-2.1386c1.0343.7537,2.5767,1.2796,4.0491,1.2796,1.6827,0,2.366-.5609,2.366-1.3146,0-2.296-7.1338-.7187-7.1338-5.2758,0-2.0857,1.6827-3.8213,5.1708-3.8213,1.5424,0,3.1201.3681,4.2593,1.0868l-.8765,2.1561c-1.1393-.6487-2.3135-.9644-3.4003-.9644-1.6827,0-2.3314.6312-2.3314,1.4024,0,2.2611,7.1338.7012,7.1338,5.2058,0,2.0508-1.7002,3.8034-5.2054,3.8034-1.9458,0-3.9087-.5784-4.9955-1.4195Z"/><path class="c" d="m20.4859,50.5028c0,.2069.0496.36.1487.4591.0991.0992.2306.1487.3944.1487.1724,0,.3017-.0489.388-.1466.0862-.0976.1293-.2299.1293-.3965v-1.6251h.5992v1.5475c0,.1523-.0129.2888-.0388.4095.069.0575.1588.0999.2694.1272.1106.0273.2205.0409.3297.0409v.6034c-.1179,0-.2191-.01-.3039-.0302-.0848-.0201-.1574-.0467-.2177-.0797-.0604-.033-.1099-.0704-.1487-.1121-.0388-.0416-.0712-.0841-.097-.1272-.1811.2616-.4842.3923-.9095.3923-.0834,0-.1653-.0065-.2457-.0194-.0805-.0129-.1581-.0351-.2327-.0668-.0748-.0316-.1444-.0739-.2091-.1272-.0647-.0531-.1215-.1199-.1703-.2004-.1092.115-.2385.2055-.388.2715-.1494.0662-.306.0992-.4698.0992h-.444v.5388h-.9914c-.1293,0-.2465-.0065-.3513-.0194-.1049-.0129-.2019-.0338-.291-.0625-.0891-.0288-.1702-.0654-.2435-.1099-.0733-.0446-.143-.0985-.2091-.1617-.1063-.1006-.181-.2306-.2241-.3901s-.0647-.3269-.0647-.5022v-1.4095h.6035v1.3362c0,.1293.0136.2392.0409.3297.0273.0905.0739.1645.1401.222.0747.0632.1681.1063.2802.1293.1121.0231.2327.0345.3621.0345h.3448v-2.3621h.6035v1.8233h.444c.0631,0,.1286-.0079.1961-.0237.0675-.0157.1293-.0445.1854-.0862.056-.0416.1013-.097.1357-.166.0345-.069.0517-.1566.0517-.2629v-1.069h.6034v1.0431Z"/><path class="c" d="m22.5937,51.0675h.8491v.6034h-.8491v-.6034Z"/><path class="c" d="m23.3566,51.0675h.8492v.6034h-.8492v-.6034Z"/><path class="c" d="m24.1196,51.0675h.4224v-2.8923h.6035v2.8923h.5517v.6034h-1.5776v-.6034Z"/><path class="c" d="m25.611,51.0675h.8491v.6034h-.8491v-.6034Z"/><path class="c" d="m26.374,51.0675h.5345v-1.8233h.6034v2.4268h-1.1379v-.6034Zm1.0927,1.4397c-.0704.0545-.153.0819-.2479.0819s-.1775-.0274-.2479-.0819c-.0704-.0546-.1056-.1351-.1056-.2414,0-.0948.0337-.1718.1013-.2306.0675-.0589.1516-.0884.2522-.0884s.1846.0294.2522.0884c.0675.0589.1013.1358.1013.2306,0,.1063-.0352.1868-.1056.2414Z"/><path class="c" d="m29.5421,52.6192c-.0575,0-.1136-.0036-.1681-.0108-.0546-.0072-.1006-.0165-.138-.028l-.0431-.6034c.0574.0143.1077.0244.1508.0302.0431.0057.0877.0086.1336.0086.1207,0,.2047-.0331.2522-.0992.0474-.0661.0711-.1739.0711-.3233v-2.3492h.6035v2.263c0,.1954-.0158.3627-.0474.5022-.0316.1393-.0819.2543-.1509.3448-.069.0905-.158.1574-.2672.2004-.1092.0431-.2414.0647-.3965.0647Z"/><path class="c" d="m31.2231,48.1751h.6034v2.8923h.5517v.6034h-1.1552v-3.4958Z"/><path class="c" d="m32.2921,51.0675h.8491v.6034h-.8491v-.6034Z"/><path class="c" d="m33.0551,51.0675h.8492v.6034h-.8492v-.6034Z"/><path class="c" d="m33.818,51.0675h.5776c-.0632-.0833-.1135-.1753-.1509-.2759-.0374-.1006-.056-.2126-.056-.3362,0-.1897.0351-.3592.1056-.5086.0704-.1494.1688-.2765.2953-.3815.1264-.1049.2787-.1846.4569-.2392.1781-.0546.375-.0819.5905-.0819h.7112v1.8233h.3966v.6034h-2.9268v-.6034Zm1.4138-2.2695c-.0661.0532-.1451.0797-.2371.0797-.092,0-.171-.0265-.2371-.0797-.0661-.0531-.0992-.13-.0992-.2306,0-.092.0324-.166.097-.222s.1444-.0841.2392-.0841.1746.028.2392.0841c.0647.0561.097.13.097.222,0,.1006-.0331.1775-.0992.2306Zm-.4396,1.6574c0,.1322.0294.25.0884.3534.0589.1034.1386.1896.2392.2586h.625v-1.2199h-.2543c-.0862,0-.1718.0129-.2565.0388-.0848.0259-.1595.0647-.2241.1164-.0647.0517-.1171.1157-.1573.1918-.0403.0762-.0604.1631-.0604.2608Zm1.3751-1.6574c-.0662.0532-.1451.0797-.2371.0797s-.171-.0265-.2371-.0797c-.0661-.0531-.0991-.13-.0991-.2306,0-.092.0323-.166.097-.222.0647-.0561.1444-.0841.2392-.0841.0977,0,.1782.028.2414.0841s.0948.13.0948.222c0,.1006-.0331.1775-.0991.2306Z"/><path class="c" d="m36.6586,51.0675h.8492v.6034h-.8492v-.6034Z"/><path class="c" d="m37.4215,51.0675h.4698c-.0489-.1006-.0912-.2112-.1272-.3319-.036-.1207-.0538-.25-.0538-.388,0-.2069.0402-.3879.1207-.5431.0804-.1552.1838-.2845.3103-.3879.1006-.0833.2177-.1466.3513-.1897.1336-.0431.278-.0646.4332-.0646.1609,0,.3139.0209.4591.0625.145.0417.291.0999.4375.1745l-.2026.5474c-.092-.0517-.1933-.0955-.3039-.1315-.1107-.0359-.2163-.0539-.3169-.0539-.1983,0-.3549.0489-.4698.1466-.0776.0661-.1322.1401-.1638.222-.0316.0819-.0474.1702-.0474.2651,0,.138.0201.2623.0603.3729.0402.1107.0963.2105.1681.2996h1.3664v.6034h-2.4914v-.6034Z"/><path class="c" d="m20.3501,54.6819c-.0777,0-.1529-.0093-.2257-.0278-.0728-.0185-.1369-.0478-.1924-.0879s-.0999-.091-.1332-.1527c-.0333-.0616-.0499-.1357-.0499-.222,0-.0691.0139-.1335.0416-.1934.0278-.0598.0678-.1116.1203-.1554.0524-.0438.1157-.0783.1897-.1036.074-.0253.1572-.0379.2497-.0379h.111v-.0925h.0833v.9898h.2479v.0833h-.4422Zm.111-.0833v-.814h-.1628c-.058,0-.115.0099-.1712.0296s-.1061.0472-.1499.0823c-.0438.0352-.0789.078-.1055.1286-.0265.0506-.0397.1061-.0397.1665,0,.0641.0123.1215.037.172.0247.0506.058.0931.0999.1276.0419.0346.0913.0611.148.0796.0567.0185.1172.0278.1813.0278h.1628Zm-.2442-1.2303c-.0148.0148-.0327.0222-.0536.0222-.021,0-.0389-.0074-.0537-.0222-.0148-.0148-.0222-.0327-.0222-.0536,0-.021.0074-.0388.0222-.0536.0148-.0148.0327-.0222.0537-.0222.021,0,.0388.0074.0536.0222s.0222.0327.0222.0536c0,.021-.0074.0389-.0222.0536Zm.3312,0c-.0148.0148-.0327.0222-.0536.0222-.021,0-.0389-.0074-.0536-.0222-.0148-.0148-.0222-.0327-.0222-.0536,0-.021.0074-.0388.0222-.0536.0148-.0148.0327-.0222.0536-.0222.021,0,.0389.0074.0536.0222.0148.0148.0222.0327.0222.0536,0,.021-.0074.0389-.0222.0536Z"/><path class="c" d="m20.7552,54.5986h.4181v-.8973h.0833v.9805h-.5014v-.0833Zm.1646.444c-.0148.0148-.0327.0222-.0536.0222-.021,0-.0389-.0074-.0536-.0222-.0148-.0148-.0222-.0327-.0222-.0537,0-.021.0074-.0388.0222-.0536.0148-.0148.0327-.0222.0536-.0222.021,0,.0389.0074.0536.0222.0148.0148.0222.0327.0222.0536,0,.021-.0074.0389-.0222.0537Zm.3312,0c-.0148.0148-.0327.0222-.0536.0222-.021,0-.0388-.0074-.0537-.0222-.0148-.0148-.0222-.0327-.0222-.0537,0-.021.0074-.0388.0222-.0536.0148-.0148.0327-.0222.0537-.0222.021,0,.0388.0074.0536.0222s.0222.0327.0222.0536c0,.021-.0074.0389-.0222.0537Z"/><path class="c" d="m21.5693,55.0908c-.0308,0-.0617-.0068-.0925-.0203l.0296-.0777c.0234.0099.0469.0148.0703.0148.0345,0,.0617-.0074.0814-.0222.0197-.0148.0348-.0336.0453-.0564.0105-.0229.017-.0481.0195-.0759.0024-.0278.0037-.0546.0037-.0805v-1.0712h.0833v1.0712c0,.0432-.0031.0842-.0093.123-.0062.0389-.0179.0728-.0351.1018-.0173.029-.0416.0518-.0731.0684s-.0725.025-.123.025Z"/><path class="c" d="m22.189,53.1815h.0833v1.4172h.2886v.0833h-.3719v-1.5004Z"/><path class="c" d="m22.5239,54.5986h.4255v.0833h-.4255v-.0833Z"/><path class="c" d="m22.9124,54.5986h.4255c-.0321-.021-.0617-.0447-.0888-.0712-.0272-.0265-.0512-.0567-.0722-.0906-.021-.0339-.0373-.0712-.049-.1119-.0117-.0407-.0176-.0857-.0176-.1351,0-.0715.0132-.1375.0398-.198.0265-.0604.065-.1119.1156-.1545.0506-.0426.1125-.0758.186-.0999.0733-.0241.1575-.0361.2525-.0361h.2294v.8973h.2479v.0833h-1.2692v-.0833Zm.2813-.4089c0,.0481.0074.0928.0222.1341.0148.0414.0348.0789.0601.1129.0253.0339.0549.0645.0888.0916.0339.0272.0706.0506.1101.0703h.3756v-.814h-.198c-.058,0-.1147.009-.1702.0268s-.1045.0441-.1471.0786c-.0426.0346-.0768.0771-.1027.1276-.0259.0506-.0388.1079-.0388.1721Zm.3644-.7493c-.0148.0148-.0327.0222-.0536.0222-.021,0-.0388-.0074-.0537-.0222-.0148-.0148-.0222-.0327-.0222-.0537,0-.021.0074-.0388.0222-.0536.0148-.0148.0327-.0222.0537-.0222.021,0,.0388.0074.0536.0222s.0222.0327.0222.0536c0,.021-.0074.0389-.0222.0537Zm.3312,0c-.0148.0148-.0327.0222-.0536.0222-.021,0-.0389-.0074-.0536-.0222-.0148-.0148-.0222-.0327-.0222-.0537,0-.021.0074-.0388.0222-.0536.0148-.0148.0327-.0222.0536-.0222.021,0,.0389.0074.0536.0222.0148.0148.0222.0327.0222.0536,0,.021-.0074.0389-.0222.0537Z"/><path class="c" d="m24.1446,54.5986h.4255v.0833h-.4255v-.0833Z"/><path class="c" d="m24.5331,54.5986h.3756l-.2664-.6753c.0764-.0666.161-.1203.2534-.161.0925-.0407.1832-.0611.272-.0611.0876,0,.1776.0204.2701.0611s.1776.0943.2553.161l-.2775.6753h.4218v.0833h-1.3043v-.0833Zm.6346-.814c-.0728,0-.1456.0142-.2183.0426s-.1418.0697-.2072.124l.2645.6475h.32l.2664-.6475c-.0246-.0222-.054-.0432-.0879-.0629-.0339-.0197-.0697-.0373-.1073-.0528-.0376-.0154-.0761-.0278-.1156-.037-.0395-.0093-.0777-.0139-.1147-.0139Z"/><path class="c" d="m25.8004,54.5986h.2886v-1.4172h.2664v.0833h-.1832v1.4172h-.3719v-.0833Z"/><path class="c" d="m26.6422,53.1815h.0832v1.5004h-.0832v-1.5004Z"/><path class="c" d="m28.2333,54.6819c-.0777,0-.1529-.0093-.2257-.0278s-.1369-.0478-.1924-.0879-.0999-.091-.1332-.1527c-.0333-.0616-.0499-.1357-.0499-.222,0-.0691.0139-.1335.0416-.1934.0277-.0598.0678-.1116.1202-.1554.0524-.0438.1156-.0783.1896-.1036.074-.0253.1573-.0379.2498-.0379h.111v-.0925h.0833v.9898h.2479v.0833h-.4422Zm.111-.0833v-.814h-.1628c-.058,0-.115.0099-.1711.0296-.0561.0197-.1061.0472-.1498.0823-.0438.0352-.079.078-.1055.1286-.0265.0506-.0398.1061-.0398.1665,0,.0641.0123.1215.037.172.0246.0506.058.0931.0999.1276.0419.0346.0913.0611.148.0796.0567.0185.1172.0278.1813.0278h.1628Zm-.2442-1.2303c-.0148.0148-.0327.0222-.0536.0222-.021,0-.0389-.0074-.0536-.0222-.0148-.0148-.0222-.0327-.0222-.0536,0-.021.0074-.0388.0222-.0536.0148-.0148.0327-.0222.0536-.0222.021,0,.0389.0074.0536.0222.0148.0148.0222.0327.0222.0536,0,.021-.0074.0389-.0222.0536Zm.3312,0c-.0148.0148-.0327.0222-.0536.0222-.021,0-.0388-.0074-.0537-.0222-.0148-.0148-.0222-.0327-.0222-.0536,0-.021.0074-.0388.0222-.0536.0148-.0148.0327-.0222.0537-.0222.021,0,.0388.0074.0536.0222s.0222.0327.0222.0536c0,.021-.0074.0389-.0222.0536Z"/><path class="c" d="m28.6384,54.5986h.4255v.0833h-.4255v-.0833Z"/><path class="c" d="m29.027,54.5986h.4255v.0833h-.4255v-.0833Z"/><path class="c" d="m29.4155,54.5986h.2886v-1.4172h.0833v.6457h.7067c.0592,0,.1098.0099.1517.0296.0419.0197.0808.0494.1166.0888.0283.0321.049.07.062.1138.0129.0438.0194.0879.0194.1323v.4903h-1.4282v-.0833Zm.3719-.6882v.6882h.9731v-.3848c0-.0469-.0046-.087-.0139-.1203-.0092-.0333-.0249-.0641-.0472-.0925-.0222-.0284-.0512-.0506-.087-.0666-.0358-.016-.0715-.024-.1073-.024h-.7178Z"/><path class="c" d="m31.2045,53.1815h.0832v1.4172h.2886v.0833h-.3719v-1.5004Z"/><path class="c" d="m31.5394,54.5986h.4255v.0833h-.4255v-.0833Z"/><path class="c" d="m31.9279,54.5986h.4255v.0833h-.4255v-.0833Z"/><path class="c" d="m32.3164,54.5986h.4181v-.8048h.0833v.8048h.3497c.0728,0,.1326-.0222.1795-.0666.0469-.0444.0703-.1092.0703-.1943v-.5439h.0833v.5162c0,.0407.0077.0802.0231.1184.0154.0382.0376.0716.0666.0999.029.0284.0638.0512.1045.0684.0407.0173.087.0259.1388.0259.1036,0,.1803-.029.2303-.087.05-.058.075-.1332.075-.2257v-.7382h.0833v.7197c0,.1418-.0348.2455-.1045.3108-.0697.0654-.1644.0981-.284.0981-.0827,0-.1563-.0173-.2211-.0518s-.1132-.0851-.1452-.1517c-.0247.0567-.0632.1018-.1157.1351s-.1138.0499-.1841.0499h-.851v-.0833Z"/><path class="c" d="m34.8973,55.0889c-.058,0-.1095-.0083-.1545-.025-.045-.0166-.0922-.0392-.1415-.0675l.0389-.074c.0456.0246.0891.0447.1304.0601.0413.0154.086.0231.1342.0231.0863,0,.1544-.0207.2044-.062.0499-.0414.075-.099.075-.173v-.0888h-.111c-.0777,0-.1533-.0086-.2266-.0259-.0734-.0173-.1385-.0453-.1952-.0842-.0567-.0388-.1024-.0894-.1369-.1517-.0346-.0623-.0518-.1384-.0518-.2285,0-.0715.0142-.1375.0426-.198s.0687-.1122.1212-.1554c.0524-.0431.1162-.0767.1915-.1008.0752-.0241.1603-.0361.2553-.0361h.1942v.8973h.2868v.0833h-.2868v.0888c0,.0987-.0336.1764-.1008.2331-.0672.0567-.157.0851-.2692.0851Zm-.3515-.8973c0,.0678.0126.127.0379.1776.0253.0506.0598.0928.1036.1267.0438.0339.0943.0595.1517.0768s.1181.0259.1822.0259h.1628v-.814h-.1628c-.058,0-.1154.0096-.172.0287-.0567.0192-.1076.0463-.1527.0814-.045.0351-.0814.0777-.1091.1276-.0278.0499-.0416.1064-.0416.1693Z"/><path class="c" d="m35.5171,54.5986h.2516v-1.4172h.0833v1.4172h.2886v.0833h-.6235v-.0833Z"/><path class="c" d="m36.1035,54.5986h.2886v-1.4172h.2664v.0833h-.1832v1.4172h-.3719v-.0833Z"/><path class="c" d="m32.287,47.8624h11.8408v-25.0857h-.001l-12.9639-9.1585V3.8934L12.2796,22.7766v25.0857h11.8603v-9.4016h8.1472v9.4016Zm-3.9192-22.8374h0l-.0554-.0554c-.0595-.0605-.159-.0605-.2185,0l-.0554.0554h0l-1.6517,1.6517-2.2471,2.2471v-.7723l.437-.437,2.6894-2.6894.6523-.6523c.1559-.1559.4134-.1559.5703,0l.0656.0657h0l3.2761,3.2761.4564.4564v.7724l-1.2288-1.2288-2.3089-2.3078-.3816-.3816Zm2.7951-8.2128l10.3555,7.3164v21.1255h-6.622v-14.4727l3.1989,3.1988c.1135.1135.2975.1135.4111.0001l.7303-.7296c.1136-.1135.1137-.2977.0001-.4112l-4.3403-4.3403-3.4751-3.4741-.2585-.2585v-7.9544Zm-9.6324,28.4419h-6.6425v-21.3963l13.6665-13.6665v11.967l-.0656-.0657c-.1569-.158-.4144-.158-.5703,0l-2.9325,2.9325h0l-2.5622,2.5622-.8934.8913-1.0103,1.0083c0,.0021.001.0031.001.0031l-3.3505,3.3495c-.1136.1135-.1136.2976,0,.4112l.7294.7294c.1135.1135.2976.1135.4112,0l3.2192-3.2192v14.4933Zm2.6094-9.4827v-5.9727l2.0832-2.0842,1.8709-1.8709c.0595-.0595.159-.0595.2185,0l1.8709,1.8709h0l2.1037,2.1037v5.9532h-8.1472Z"/><polygon class="c" points="12.2796 55.7857 12.2796 58.394 21.5315 58.394 21.5315 62.8331 24.1398 62.8331 24.1398 58.394 24.1398 55.7857 21.5315 55.7857 12.2796 55.7857"/><polygon class="c" points="34.8954 55.7857 32.287 55.7857 32.287 58.394 32.287 62.8331 34.8954 62.8331 34.8954 58.394 44.1473 58.394 44.1473 55.7857 34.8954 55.7857"/><path class="c" d="m25.307,29.0262h2.3775c.0936,0,.1697.076.1697.1697v2.3776c0,.0938-.0762.17-.17.17h-2.3771c-.0935,0-.1694-.0759-.1694-.1694v-2.3785c0-.0934.0759-.1693.1693-.1693Z"/><path class="c" d="m28.7216,29.0262h2.3776c.0937,0,.1697.076.1697.1697v2.3776c0,.0938-.0762.17-.17.17h-2.3769c-.0937,0-.1697-.076-.1697-.1697v-2.3783c0-.0934.0759-.1693.1693-.1693Z"/><path class="c" d="m25.307,32.2589h2.3775c.0936,0,.1697.076.1697.1697v2.3769c0,.0939-.0762.1701-.1701.1701h-2.3769c-.0935,0-.1694-.0759-.1694-.1694v-2.3779c0-.0934.0759-.1693.1693-.1693Z"/><path class="c" d="m28.7217,32.2589h2.3776c.0937,0,.1697.076.1697.1697v2.3768c0,.0939-.0762.1701-.1701.1701h-2.3764c-.0939,0-.1701-.0762-.1701-.1701v-2.3772c0-.0934.0759-.1693.1693-.1693Z"/><path class="b" d="m93.2507,49.6789c-.4125,0-.812-.0491-1.1982-.1473-.3865-.0982-.7267-.2537-1.0214-.4664s-.5303-.4829-.7071-.8104c-.1768-.3273-.2652-.7201-.2652-1.1784,0-.3667.0738-.7087.2209-1.0264.1475-.3176.3601-.5924.6384-.825.2782-.2323.614-.4158,1.0068-.5501.3929-.1341.8347-.2013,1.3258-.2013h.5893v-.4911h.442v5.2545h1.316v.442h-2.3473Zm.5893-.442v-4.3214h-.8642c-.3079,0-.6107.0524-.9086.1572s-.5631.2504-.7956.4369c-.2323.1867-.4189.4142-.5598.6827-.1407.2685-.211.5631-.211.884,0,.3405.0654.6448.1962.9133.131.2686.3079.4944.5305.6776.2226.1834.4845.3242.7857.4224.3011.0982.6219.1473.9626.1473h.8642Zm-1.2964-6.5313c-.0786.0786-.1735.118-.2848.118-.1114,0-.2063-.0394-.2849-.118-.0784-.0784-.1176-.1733-.1176-.2848,0-.1112.0392-.2061.1176-.2848.0786-.0786.1735-.1178.2849-.1178.1112,0,.2061.0392.2848.1178s.1178.1735.1178.2848c0,.1114-.0392.2063-.1178.2848Zm1.758,0c-.0784.0786-.1735.118-.2848.118-.1114,0-.2063-.0394-.2848-.118-.0788-.0784-.118-.1733-.118-.2848,0-.1112.0392-.2061.118-.2848.0784-.0786.1733-.1178.2848-.1178.1112,0,.2063.0392.2848.1178.0786.0786.118.1735.118.2848,0,.1114-.0394.2063-.118.2848Z"/><path class="b" d="m95.4016,49.2369h2.2196v-4.7634h.442v5.2054h-2.6616v-.442Zm.8741,2.3572c-.0784.0784-.1735.1178-.2848.1178-.1114,0-.2063-.0394-.2848-.1178-.0786-.0786-.118-.1737-.118-.2849,0-.1114.0394-.2061.118-.2848.0784-.0786.1733-.1178.2848-.1178.1112,0,.2063.0392.2848.1178.0786.0786.118.1733.118.2848,0,.1112-.0394.2063-.118.2849Zm1.758,0c-.0786.0784-.1735.1178-.2848.1178-.1114,0-.2061-.0394-.2849-.1178-.0784-.0786-.1176-.1737-.1176-.2849,0-.1114.0392-.2061.1176-.2848.0788-.0786.1735-.1178.2849-.1178.1112,0,.2061.0392.2848.1178s.1178.1733.1178.2848c0,.1112-.0392.2063-.1178.2849Z"/><path class="b" d="m99.7231,51.8494c-.1636,0-.3275-.0361-.4911-.1079l.1572-.4127c.1242.0524.2488.0786.3731.0786.1832,0,.3275-.0392.4323-.1178.1046-.0786.185-.1784.2405-.2995.0557-.1213.0901-.2554.1033-.4028.013-.1473.0196-.2896.0196-.4272v-5.6866h.442v5.6866c0,.2292-.0163.447-.0491.6532-.0328.2063-.0949.3863-.1865.5402-.0918.1537-.2211.2751-.388.3634s-.3847.1326-.6532.1326Z"/><path class="b" d="m103.0132,41.7137h.4422v7.5232h1.5321v.442h-1.9743v-7.9652Z"/><path class="b" d="m104.791,49.2369h2.2588v.442h-2.2588v-.442Z"/><path class="b" d="m106.8534,49.2369h2.259c-.1704-.1112-.3275-.2372-.4713-.3781-.1442-.1407-.2719-.3011-.3832-.4812-.1114-.1801-.198-.3781-.2603-.5942-.0623-.2162-.0934-.4552-.0934-.717,0-.3797.0703-.73.2112-1.0509.1409-.3207.3453-.5942.6138-.8201.2686-.2259.5975-.4026.9872-.5303.3894-.1277.8362-.1916,1.3405-.1916h1.2178v4.7634h1.316v.442h-6.7375v-.442Zm1.4931-2.1705c0,.2554.0392.4928.1176.712.0788.2195.185.4191.3193.5992.1341.1801.2914.3422.4715.486.1799.1442.3746.2686.5843.3733h1.9939v-4.3214h-1.0509c-.3079,0-.6091.0476-.9038.1425s-.5548.2341-.7807.4173c-.2259.1834-.4076.4094-.5451.6776-.1374.2686-.2061.573-.2061.9135Zm1.9347-3.9777c-.0786.0786-.1735.1178-.2848.1178-.1114,0-.2061-.0392-.2849-.1178-.0784-.0786-.1176-.1735-.1176-.2849,0-.1112.0392-.2061.1176-.2848.0788-.0786.1735-.1178.2849-.1178.1112,0,.2061.0392.2848.1178s.1178.1735.1178.2848c0,.1114-.0392.2063-.1178.2849Zm1.758,0c-.0784.0786-.1735.1178-.2848.1178-.1114,0-.2063-.0392-.2848-.1178-.0788-.0786-.118-.1735-.118-.2849,0-.1112.0392-.2061.118-.2848.0784-.0786.1733-.1178.2848-.1178.1112,0,.2063.0392.2848.1178.0786.0786.118.1735.118.2848,0,.1114-.0394.2063-.118.2849Z"/><path class="b" d="m113.3945,49.2369h2.259v.442h-2.259v-.442Z"/><path class="b" d="m115.457,49.2369h1.9939l-1.4143-3.5848c.4057-.3537.8545-.6384,1.3454-.8545.4911-.216.9723-.3242,1.4438-.3242.4649,0,.9428.1081,1.4339.3242s.943.5008,1.3555.8545l-1.4733,3.5848h2.2394v.442h-6.9242v-.442Zm3.3687-4.3214c-.3865,0-.7727.0753-1.159.2259s-.7529.37-1.0998.658l1.4044,3.4375h1.699l1.4143-3.4375c-.1308-.1178-.2865-.2292-.4664-.3339-.1801-.1048-.37-.198-.5697-.2801-.1997-.0817-.4041-.1473-.6138-.1962-.2096-.0491-.4125-.0738-.6089-.0738Z"/><path class="b" d="m122.1848,49.2369h1.5321v-7.5232h1.4143v.442h-.9723v7.5232h-1.9741v-.442Z"/><path class="b" d="m126.6536,41.7137h.4418v7.9652h-.4418v-7.9652Z"/><path class="b" d="m135.0998,49.6789c-.4125,0-.812-.0491-1.1982-.1473s-.7267-.2537-1.0214-.4664-.5303-.4829-.7071-.8104c-.1768-.3273-.2652-.7201-.2652-1.1784,0-.3667.0736-.7087.2211-1.0264.1471-.3176.3599-.5924.6382-.825.2784-.2323.6138-.4158,1.0066-.5501.3929-.1341.8351-.2013,1.3259-.2013h.5893v-.4911h.442v5.2545h1.316v.442h-2.3473Zm.5893-.442v-4.3214h-.8644c-.3079,0-.6107.0524-.9084.1572-.298.1048-.5633.2504-.7955.4369-.2325.1867-.4193.4142-.5598.6827-.1409.2685-.2112.5631-.2112.884,0,.3405.0652.6448.1964.9133.1308.2686.3077.4944.5303.6776.2224.1834.4845.3242.7857.4224.3011.0982.6219.1473.9624.1473h.8644Zm-1.2964-6.5313c-.0784.0786-.1735.118-.2848.118-.1114,0-.2063-.0394-.2848-.118-.0788-.0784-.118-.1733-.118-.2848,0-.1112.0392-.2061.118-.2848.0784-.0786.1733-.1178.2848-.1178.1112,0,.2063.0392.2848.1178.0786.0786.118.1735.118.2848,0,.1114-.0394.2063-.118.2848Zm1.758,0c-.0786.0786-.1735.118-.2848.118-.1114,0-.2061-.0394-.2849-.118-.0784-.0784-.1176-.1733-.1176-.2848,0-.1112.0392-.2061.1176-.2848.0788-.0786.1735-.1178.2849-.1178.1112,0,.2061.0392.2848.1178s.1178.1735.1178.2848c0,.1114-.0392.2063-.1178.2848Z"/><path class="b" d="m137.2507,49.2369h2.259v.442h-2.259v-.442Z"/><path class="b" d="m139.3133,49.2369h2.259v.442h-2.259v-.442Z"/><path class="b" d="m141.3758,49.2369h1.5321v-7.5232h.442v3.4277h3.7517c.3143,0,.5827.0524.8054.157.2226.1048.4288.262.6188.4715.1504.1704.2603.3717.329.6041.0687.2325.1031.4664.1031.7023v2.6026h-7.582v-.442Zm1.9741-3.6535v3.6535h5.166v-2.0428c0-.2488-.0245-.4616-.0738-.6384-.0489-.1768-.1324-.3405-.2504-.4911-.1176-.1506-.2718-.2685-.4616-.3537-.1898-.085-.3797-.1275-.5695-.1275h-3.8107Z"/><path class="b" d="m150.8731,41.7137h.4418v7.5232h1.5323v.442h-1.9741v-7.9652Z"/><path class="b" d="m152.6508,49.2369h2.2588v.442h-2.2588v-.442Z"/><path class="b" d="m154.7132,49.2369h2.2588v.442h-2.2588v-.442Z"/><path class="b" d="m156.7758,49.2369h2.2196v-4.2723h.442v4.2723h1.8563c.3863,0,.7038-.1178.9527-.3535.2488-.2358.3731-.5796.3731-1.0313v-2.8875h.4422v2.7402c0,.216.0408.4257.1227.6285.0819.203.1995.3799.3537.5303.1537.1508.3389.2719.5548.3634.2162.0918.4616.1376.7368.1376.5499,0,.9573-.1537,1.2225-.4616.2653-.3077.3979-.7071.3979-1.1982v-3.9188h.442v3.8206c0,.7529-.185,1.303-.555,1.6499-.37.3473-.8727.5206-1.5074.5206-.4389,0-.83-.0918-1.1738-.2751s-.6008-.4517-.771-.8054c-.131.3013-.3356.5402-.614.717s-.6039.2652-.9771.2652h-4.5179v-.442Z"/><path class="b" d="m170.4766,51.8397c-.3079,0-.5812-.0443-.8201-.1328-.2391-.0883-.4895-.2079-.7514-.3583l.2063-.3929c.2422.1308.4728.2372.6924.3191.2191.0819.4567.1229.7122.1229.4581,0,.8199-.1099,1.0851-.329.2652-.2195.3979-.5254.3979-.9183v-.4715h-.5893c-.4127,0-.8137-.0458-1.2031-.1374-.3898-.0916-.7353-.2407-1.0361-.447-.3013-.2061-.5437-.4746-.7269-.8054-.1834-.3306-.2751-.7349-.2751-1.2128,0-.3797.0753-.73.2259-1.0509s.3649-.5957.6433-.8252c.2784-.229.6171-.4074,1.0165-.5352.3993-.1277.8512-.1916,1.3555-.1916h1.0311v4.7634h1.5224v.442h-1.5224v.4715c0,.5237-.1784.9362-.5352,1.2374-.357.3011-.8333.4519-1.429.4519Zm-1.866-4.7634c0,.3601.067.6743.2011.9428.1343.2685.3176.4928.5501.6728.2323.1801.5008.316.8054.4076s.6268.1374.9674.1374h.8644v-4.3214h-.8644c-.3079,0-.6124.0509-.9133.1522-.3013.1017-.5715.2455-.8104.4323-.2389.1865-.4323.4125-.5794.6776-.1473.2652-.2209.5647-.2209.8987Z"/><path class="b" d="m173.7668,49.2369h1.3357v-7.5232h.442v7.5232h1.5321v.442h-3.3097v-.442Z"/><path class="b" d="m176.8801,49.2369h1.5323v-7.5232h1.4143v.442h-.9725v7.5232h-1.9741v-.442Z"/></svg>